# xmcd CD database file
#
# Track frame offsets:
#	150
#	13401
#	25033
#	38365
#	50156
#	63405
#	75746
#	88987
#	101074
#	113321
#	127275
#	139117
#	152348
#	163875
#	174516
#	186485
#
# Disc length: 2654 seconds
#
# Revision: 4
# Processed by: cddbd v1.5.2PL0 Copyright (c) Steve Scherf et al.
# Submitted via: CDex 1.70beta2
#
DISCID=d70a5c10
DTITLE=Robert Johnson - Cross Road Blues - CD 2
DYEAR=1936
DGENRE=Blues
TTITLE0=Preaching Blues
TTITLE1=Walking Blues
TTITLE2=32-20 Blues
TTITLE3=Cross Road Blues
TTITLE4=Come On In My Kitchen
TTITLE5=Last Fair Deal Gone Down
TTITLE6=Kindhearted Woman Blues
TTITLE7=If I Had Possesion Over Judgment Day
TTITLE8=When You Got A Good Friend
TTITLE9=Terraplane Blues
TTITLE10=Me And The Devil Blues
TTITLE11=Rambling On My Mind
TTITLE12=Stones In My Passway
TTITLE13=Milkcow Calf Blues
TTITLE14=Hellhound My Trail
TTITLE15=Traveling Riverside Blues
EXTD=YEAR: 1936
EXTT0=
EXTT1=
EXTT2=
EXTT3=
EXTT4=
EXTT5=
EXTT6=
EXTT7=
EXTT8=
EXTT9=
EXTT10=
EXTT11=
EXTT12=
EXTT13=
EXTT14=
EXTT15=
PLAYORDER=
